<?xml version="1.0" encoding="utf-8"?>
<!-- Generator: Adobe Illustrator 22.0.1, SVG Export Plug-In . SVG Version: 6.00 Build 0)  -->
<svg version="1.1" id="Calque_1" xmlns="http://www.w3.org/2000/svg" xmlns:xlink="http://www.w3.org/1999/xlink" x="0px" y="0px"
	 viewBox="0 0 432 432" style="enable-background:new 0 0 432 432;" xml:space="preserve">
<style type="text/css">
	.st0{fill:#957452;}
	.st1{fill:#88573C;}
	.st2{fill:#D6C49A;}
	.st3{fill:#E52627;}
	.st4{fill:#CDCCCC;}
	.st5{fill:#264395;}
	.st6{fill:#1E274A;}
	.st7{fill:#EC6625;}
	.st8{fill:#020203;}
	.st9{fill:#E52521;}
	.st10{fill:#808181;}
	.st11{fill:#FFE324;}
	.st12{fill:#3F4244;}
	.st13{fill:#009F4A;}
	.st14{fill:#343434;}
	.st15{fill:#78170E;}
	.st16{fill:#F0E9D5;}
	.st17{fill:#272531;}
	.st18{fill:#222B56;}
	.st19{fill:#9BD2CC;}
	.st20{fill:#83B143;}
	.st21{fill:#1B1B1B;}
	.st22{fill:#FFFFFF;}
	.st23{fill:#DDD6C3;}
	.st24{fill:#997F64;}
	.st25{fill:#77684B;}
	.st26{fill:#A89877;}
	.st27{fill:#B4B4B4;}
	.st28{fill:#DDCEBB;}
	.st29{fill:#9A2A1A;}
	.st30{fill:#5E1C0C;}
	.st31{fill:#F1CA43;}
	.st32{fill:#A57B46;}
	.st33{fill:#F18538;}
	.st34{fill:#F2AC64;}
	.st35{fill:#FAB42D;}
	.st36{fill:#46494E;}
	.st37{fill:#CF875E;}
	.st38{fill:#E7E6E6;}
	.st39{fill:#1A181D;}
	.st40{fill:#637644;}
	.st41{fill:#9F1E29;}
	.st42{fill:#F9B03D;}
	.st43{fill:#0D71B9;}
	.st44{fill:#E52629;}
	.st45{fill:#676767;}
	.st46{fill:#30358C;}
	.st47{fill:#9A9999;}
	.st48{fill:#3F4798;}
	.st49{fill:#2DABE3;}
	.st50{fill:#C1292E;}
	.st51{fill:#F2F2F2;}
	.st52{fill:#AA7C4C;}
	.st53{fill:#D6A573;}
	.st54{fill:#29ACE1;}
	.st55{fill:#88C05E;}
	.st56{fill:#F39323;}
	.st57{fill:#EB5B28;}
	.st58{fill:#B85965;}
	.st59{fill:#A67D52;}
	.st60{fill:#8C633A;}
	.st61{fill:#009245;}
	.st62{fill:#066938;}
	.st63{fill:#7D252D;}
	.st64{fill:#95D3E3;}
	.st65{fill:#603914;}
	.st66{fill:#EFC9AF;}
	.st67{fill:#D987B8;}
	.st68{fill:#8FC14D;}
	.st69{fill:#C69C6C;}
	.st70{fill:#2BADE1;}
	.st71{fill:#A4C958;}
	.st72{fill:#754D24;}
	.st73{fill:#35AE73;}
	.st74{fill:#E0B99E;}
	.st75{fill:#BDCCD4;}
	.st76{fill:#0C0D0D;}
	.st77{fill:#F4E152;}
	.st78{fill:#1E1911;}
	.st79{fill:#A1BD4F;}
	.st80{fill:#CBE6DC;}
	.st81{fill:#B5DCCE;}
	.st82{fill:#1F1D1B;}
	.st83{fill:#746458;}
	.st84{fill:#C7B29A;}
	.st85{fill:#998675;}
	.st86{fill:#428540;}
	.st87{fill:#E3E5E3;}
	.st88{fill:#161617;}
	.st89{fill:#1E1F1E;}
	.st90{fill:#474847;}
	.st91{fill:#191A19;}
	.st92{fill:#4B2C15;}
	.st93{fill:#92552A;}
	.st94{fill:#7EA847;}
	.st95{fill:#D59E2B;}
	.st96{fill:#807E79;}
	.st97{fill:#E5B744;}
	.st98{fill:#8EC045;}
	.st99{fill:#3B569A;}
	.st100{fill:#A1B7E0;}
	.st101{fill:#8FC9CC;}
	.st102{fill:#9ED1CA;}
	.st103{fill:#81AAA9;}
	.st104{fill:#E1783D;}
	.st105{fill:#64328A;}
	.st106{fill:#DEDEA5;}
	.st107{fill:#754997;}
	.st108{fill:#EE6F43;}
	.st109{fill:#A6CB67;}
	.st110{fill:#8FB7C0;}
	.st111{fill:#E2E1DF;}
	.st112{fill:#2C3E70;}
	.st113{fill:#D9BF96;}
	.st114{fill:#9C6941;}
	.st115{fill:#61605E;}
	.st116{fill:#9C9A99;}
	.st117{fill:#245F3D;}
	.st118{fill:#191713;}
	.st119{fill:#C39A62;}
	.st120{fill:#A17C4F;}
	.st121{fill:#F39200;}
	.st122{fill:#432918;}
	.st123{fill:#B17F4A;}
	.st124{fill:#FFCE1E;}
	.st125{fill:#BE1622;}
	.st126{fill:#3AAA35;}
	.st127{fill:#911825;}
	.st128{fill:#009FE3;}
	.st129{fill:#E94E1B;}
	.st130{fill:#FFCC03;}
	.st131{fill:#95C11F;}
	.st132{fill:#00A19A;}
	.st133{fill:#683C11;}
	.st134{fill:#878787;}
	.st135{fill:#634E42;}
	.st136{fill:#CBBBA0;}
	.st137{fill:#7B5B41;}
	.st138{fill:#493E36;}
	.st139{fill:#78A62C;}
	.st140{fill:#2C8535;}
	.st141{fill:#F9B233;}
	.st142{fill:none;}
	.st143{fill:#CA9E67;}
	.st144{fill:#E30613;}
	.st145{fill:#C6C6C6;}
	.st146{fill:#575756;}
	.st147{fill:#7B6A58;}
	.st148{fill:#A3C5D7;}
	.st149{fill:#332C25;}
	.st150{fill:#29235C;}
	.st151{fill:#E6332A;}
	.st152{fill:#738D93;}
	.st153{fill:#C87B31;}
	.st154{fill:#5BBCA7;}
	.st155{fill:#EF786F;}
	.st156{fill:#EE8D9E;}
	.st157{fill:#A74B56;}
	.st158{fill:#E72D7B;}
	.st159{fill:#E84138;}
	.st160{fill:#3B2315;}
	.st161{fill:#8EC044;}
	.st162{fill:#A1C74B;}
	.st163{fill:#231F20;}
	.st164{fill:#F6D9A7;}
	.st165{fill:#F4A5A6;}
	.st166{fill:#6E6F70;}
	.st167{fill:#F8AF41;}
	.st168{fill:#B79C19;}
	.st169{fill:#EFD101;}
	.st170{fill:#207A97;}
	.st171{fill:#20ACE3;}
	.st172{fill:#C51618;}
	.st173{fill:#C19446;}
	.st174{fill:#9E599F;}
	.st175{fill:#CD95C2;}
	.st176{fill:#F29A26;}
	.st177{fill:#FCCE8D;}
	.st178{fill:#F39B85;}
	.st179{fill:#E52628;}
	.st180{fill:#6BB52D;}
</style>
<g>
	<g>
		<path class="st49" d="M318.6,206.8c-0.3-5.5-0.5-11.1-1.2-16.5c-0.5-4.1-1.4-8.2-3.2-12c-6.4-12.9-16.1-22-30.2-25.8
			c-8.1-2.2-16.5-3.4-24.9-4.2c-6.5-0.7-13-0.9-19.5-0.9c-12.9-0.1-25.7-0.1-38.6-0.1c0-0.1,0-0.2,0-0.2
			c-15.3,0.1-30.6,0.2-45.9,0.3c-7.8,0.1-15.6,0.9-23.2,2.6c-4.9,1.1-9.5,2.6-13.6,5.6c-1.6,1.2-3.2,2.5-4.4,4
			c-3.5,4.3-6,9.3-8,14.5c-4,10.5-5.8,21.5-6.2,32.7c-0.3,8.8,0.4,17.6,1.8,26.2c1.1,7,3.2,13.7,6.4,20c3.7,7.4,8.4,14,14.8,19.3
			c4.6,3.8,9.7,6.6,15.1,9.1c8.1,3.7,16.6,6.2,25.2,8.3c7.7,1.8,15.5,3.2,23.4,4.3c4.9,0.7,9.8,1.2,14.7,1.6
			c4.7,0.4,9.5,0.6,14.2,0.8c6.3,0.3,12.6,0.3,18.8-0.2c6.2-0.5,12.3-1.3,18.4-2.6c7.2-1.5,14.3-3.1,21.4-5.1
			c6.7-1.9,13.2-4.1,19.3-7.3c4.9-2.5,9-5.9,12.4-10.1c3.7-4.6,6.3-9.9,8.6-15.4c3.2-7.8,4.4-16.1,4.7-24.5
			C319.1,222.9,319,214.9,318.6,206.8z M200.2,167.1c1.3-2.8,2.9-5.4,5.2-7.7c1.3-1.3,2.8-2.5,4.6-3.2c3.5-1.4,6.9-1,10.2,0.8
			c2.9,1.6,5.1,4,6.8,6.8c2.2,3.7,3.6,7.7,4.6,11.8c1.6,6.7,2.2,13.5,1.8,20.4c-0.2,3.9-0.7,7.7-1.1,11.6c-0.5,4.4-1.2,8.8-1.9,13.2
			c-0.2,1.3-0.6,2.7-1,4c-0.5,1.7-1.6,2.2-3.1,2.4c-1.2,0.1-2.3-0.8-2.9-2.1c-0.9-1.9-1.2-3.8-1.1-6c-7.5-0.3-14.8-0.5-22.1-2.2
			c0,0.5-0.1,0.8-0.1,1.1c-0.2,1.4-0.3,2.8-0.5,4.2c-0.1,0.6-0.4,1.2-0.7,1.7c-0.8,1.3-2.2,1.6-3.5,0.9c-1.3-0.7-2.2-1.8-2.4-3.3
			c-0.3-2.4-0.6-4.8-0.6-7.3c-0.2-5.7,0.2-11.3,0.9-16.9c0.9-7,2.1-14,3.8-20.8C197.7,173.4,198.7,170.2,200.2,167.1z M149.2,176.1
			c1-4.5,3.2-8.4,6.2-11.9c3.6-4.3,8.1-7.4,13.4-9.3c6.3-2.3,12-1.2,16.9,3.3c3.9,3.5,6,8,6.9,13.1c1.7,9.4-0.1,18.3-4.9,26.5
			c-3.6,6.1-9.2,9.7-16,11.4c-3,0.8-6.1,1.2-9.4,0.8c0.4,1.8,0.8,3.4,1.1,5c0.4,1.8,0.7,3.5,1,5.3c0.1,0.6,0.1,1.3,0.1,1.9
			c0,2.2-1.4,3.8-3.5,4.2c-2.1,0.4-3.8-0.4-4.7-2.5c-0.6-1.5-1-3.1-1.2-4.6c-1-7.2-2.6-14.2-4-21.3c-0.9-4.7-1.8-9.3-2.6-14
			C148.2,181.3,148.7,178.7,149.2,176.1z M125.6,254.4c-0.9,0-1.6-0.3-2.3-0.8c-0.8-0.6-1.6-1.3-2.6-2.1c-0.5,0.7-0.9,1.4-1.4,2
			c-0.8,1.1-1.7,1.4-2.7,1c-1-0.4-1.5-1.3-1.4-2.6c0-0.5,0.2-1,0.3-1.5c0.1-0.5,0.2-1,0.4-1.6c-0.4-0.1-0.8-0.1-1.1-0.2
			c-1-0.2-1.8-0.7-2.2-1.7c-0.3-1,0-1.9,0.7-2.6c0.4-0.4,1-0.7,1.5-1c0.3-0.2,0.6-0.3,1-0.4c-0.1-0.4-0.2-0.8-0.3-1.2
			c-0.1-0.5-0.3-1-0.4-1.5c-0.1-1,0.3-1.8,1.1-2.3c0.8-0.4,1.8-0.4,2.5,0.3c0.5,0.5,0.8,1,1.2,1.6c0.5,0.8,0.9,1.6,1.4,2.4
			c1-0.3,2-0.6,2.9-0.8c1.4-0.4,2.7,0.4,3,1.7c0.2,0.8-0.1,1.6-0.6,2.2c-0.5,0.6-1,1.2-1.6,1.9c0.6,0.9,1.3,1.8,1.9,2.6
			c0.3,0.4,0.7,0.9,0.9,1.4C128.3,252.8,127.2,254.3,125.6,254.4z M128.6,227c-1.6,0-3-0.6-4.3-1.4c-1.2-0.7-1.7-1.9-1.5-3.3
			c0.2-1.4,1.2-2.1,2.4-2.4c1.1-0.2,2.3-0.3,3.5-0.4c0,0.1,0,0.1,0,0.2c0.6,0,1.2,0,1.8,0c1.3,0,2.4-0.4,3.3-1.2
			c1.4-1.1,1.4-3.7,0.1-4.9c-0.4-0.4-0.9-0.7-1.4-1c-1.2-0.6-2.4-1.3-3.6-1.8c-4-1.7-7.8-3.9-11.4-6.3c-5.5-3.6-8.9-8.6-10.1-15.1
			c-0.5-2.6-0.8-5.2-0.5-7.8c0.1-1,0.3-2.1,0.6-3.1c0.7-2.4,1.9-4.7,3.3-6.8c0.4-0.6,0.8-1.2,1.3-1.6c3.3-2.9,6.9-5.2,11.3-5.9
			c4.9-0.8,9.2,0.6,12.9,3.7c1.7,1.4,3.1,3,4.6,4.6c1.1,1.2,1.9,2.7,2.2,4.4c0.2,1,0.1,1.9-0.2,2.8c-0.6,1.8-2.5,2.8-4.6,2.4
			c-1.9-0.3-3.3-1.3-4.6-2.7c-1.5-1.7-3.4-3-5.4-4.1c-1.4-0.8-2.9-1.3-4.6-1.2c-1.7,0.1-3.2,0.8-4.5,1.9c-0.7,0.6-1.5,1.3-2,2.2
			c-2.9,4.9-3.4,9.9-0.7,15c1.3,2.4,3.3,4.3,5.8,5.5c2.3,1.1,4.6,2.1,7,3.1c2.5,1.1,5,2.2,7.3,3.8c1.7,1.2,3.2,2.6,4.3,4.4
			c2.6,4.3,2.3,8.8-1.3,12.4C136.7,225.3,133,227,128.6,227z M171,263.8c-1.6,5-5,8.5-9.5,10.9c-4.3,2.3-8.9,3.4-13.7,3.8
			c-1.5,0.1-3-0.1-4.4-1c-1-0.6-1.7-1.4-1.9-2.6c-0.2-1.6-0.5-3.3-0.6-4.9c-0.3-4.9-0.4-9.9-0.7-16.7c0-3.3,0.1-8.4,0.2-13.6
			c0-1.7,0.8-2.9,2.4-3.5c1.1-0.4,2.2-0.8,3.3-0.9c7.7-0.6,14.6,1.6,20.2,7.1c2.9,2.8,4.6,6.3,5.3,10.3
			C172.3,256.5,172.2,260.2,171,263.8z M207.6,247.5c-0.1,4.1-0.5,8.3-0.8,12.4c-0.3,4.4-1.3,8.7-3,12.8c-1.5,3.6-4,6.3-7.9,7.6
			c-1.5,0.5-3.1,0.7-4.8,0.5c-4.9-0.7-8.5-3.3-10.9-7.7c-1.8-3.3-2.9-6.8-3.5-10.5c-0.7-4.1-1-8.2-1.2-12.4c0-1.4-0.2-2.7-0.3-4.1
			c-0.2-2.2-0.1-4.5,0.1-6.7c0.3-2.4,1.1-3.4,3.5-4c2.9-0.7,5.7-0.6,8.4,0.5c0.5,0.2,0.9,0.4,1.4,0.6c1.4,0.5,2.3,1.5,2.6,2.9
			c0.3,1.4,0.4,2.8,0.5,4.2c0.1,1.9,0.1,3.8,0.1,5.8c0,1.9,0,3.8,0,5.6c0,0-0.1,0-0.1,0c-0.1,3.7-0.2,7.4-0.2,11.2
			c0,1.7,0.2,3.4,0.4,5c0.3,2.1,2.4,3.1,4.3,2.1c0.6-0.3,1.1-0.8,1.6-1.4c1.2-1.5,2-3.2,2.6-5c1-3.4,1.6-6.9,2-10.4
			c0.5-4.5,0.8-9.1,0.6-13.6c-0.1-1.3-0.1-2.6-0.2-3.9c0-0.4,0-0.8,0.1-1.2c0.2-0.9,0.8-1.4,1.7-1.6c0.8-0.1,1.7,0.3,2,1.1
			c0.3,0.6,0.5,1.3,0.5,1.9C207.4,242.1,207.6,244.8,207.6,247.5z M240.7,271.7c-1.8,4.4-4.8,7.7-9,9.9c-3.5,1.8-7.3,2.9-11.3,2.9
			c-0.8,0-1.6-0.1-2.3-0.2c-2.3-0.4-3.3-1.5-3.6-3.8c-0.1-0.5-0.1-1-0.1-1.5c-0.2-6.3-0.4-12.6-0.7-21.1c0-3.5,0-9.2,0-15
			c0-1,0.1-2,0.2-2.9c0.3-2.6,1.7-4.2,4.2-4.8c3.1-0.8,6.2-0.6,9.3,0.4c2.4,0.8,4.5,2.1,6.3,3.8c5,4.7,7.9,10.5,9,17.3
			C243.4,261.8,242.7,266.8,240.7,271.7z M265,267.7c-2.3,0.1-4.5,0.2-6.8,0.2c-0.4,0-0.9,0-1.4,0c0.1,3.4,0.2,6.8,0.4,10.2
			c0.3,0,0.6,0.1,0.9,0c1.3,0,2.6-0.1,3.9-0.1c0.9,0,1.7,0.1,2.6,0.2c1.1,0.2,1.8,1,1.8,2c0.1,1.1-0.5,2-1.6,2.3
			c-0.8,0.3-1.7,0.5-2.5,0.5c-3.2,0.2-6.5,0.4-9.7,0.5c-1.5,0.1-2.9-0.3-4.2-0.9c-1.8-0.8-2.5-2.1-2.6-4c0-2.2,0-4.5-0.1-6.7
			c-0.1-2.9-0.2-5.9-0.3-8.8c-0.3-6.2-0.6-12.5-0.9-18.7c-0.1-1.8,0.1-3.5,0.2-5.3c0.1-2.1,2-4,4-4.2c1-0.1,2.1-0.3,3.2-0.2
			c3,0.1,6,0.2,9,0.4c1,0.1,2,0.4,2.9,0.8c1.1,0.4,1.6,1.4,1.6,2.4c-0.1,1-0.7,1.9-1.9,2.2c-1.1,0.2-2.2,0.3-3.4,0.3
			c-1.3,0-2.7-0.1-4-0.2c-0.2,0-0.4,0-0.7,0c0.4,7.4,0.8,14.8,1.2,22.1c2,0.1,3.9,0.2,5.8,0.3c0.8,0,1.6,0,2.5,0.1
			c1.5,0.1,2.5,1,2.5,2.2C267.5,266.7,266.5,267.6,265,267.7z M268.2,179.5c-0.3,0.8-0.7,1.7-1.3,2.3c-1.4,1.6-3.6,1.7-5.2,0.2
			c-1.3-1.3-1.9-2.9-1.9-4.7c0-1.1,0-2.2,0.1-3.3c0.1-1.2-0.1-2.4-0.6-3.6c-0.6-1.6-1.8-2.7-3.4-3.1c-0.9-0.2-1.8-0.4-2.7-0.4
			c-1.5-0.1-2.6,0.5-3.6,1.6c-2,2.1-3,4.6-3.2,7.5c-0.1,1.6-0.3,3.3-0.4,4.9c-0.1,2.6-0.2,5.2-0.3,7.8c0,4.6,0.1,9.3,1.2,13.8
			c0.5,2.3,1.4,4.4,2.6,6.4c0.6,0.9,1.3,1.6,2.3,2.1c0.7,0.3,1.3,0.3,2-0.1c0.6-0.4,1.3-0.8,2-1c2.2-0.9,4.1,0.3,4.5,2.7
			c0.2,1.1-0.1,2.1-0.6,3.1c-1.4,2.8-4.6,4.4-7.7,4.1c-3.1-0.3-5.6-1.8-7.7-4.1c-3.3-3.7-5.2-8.1-6.3-12.8
			c-1.6-6.7-2.2-13.5-1.8-20.4c0.3-5.3,1.4-10.4,4.2-15c0.8-1.3,1.7-2.6,2.7-3.7c6.1-6.8,18.2-6,23,2.9c1.4,2.6,2.1,5.3,2.5,8.1
			C268.7,176.2,268.8,177.9,268.2,179.5z M294.1,255.4c-0.5,0.3-1,0.5-1.6,0.8c-0.5,0.2-1,0.3-1.7,0.5c-0.1,0.6-0.1,1.2-0.2,1.8
			c-0.1,0.9,0,1.7-0.1,2.6c-0.1,1.4-0.9,2.3-2,2.5c-1.2,0.2-2.3-0.4-2.9-1.7c-0.5-1.2-0.8-2.5-1.2-3.8c-0.1-0.2-0.1-0.4-0.2-0.8
			c-0.3,0.1-0.6,0.2-0.9,0.3c-0.5,0.2-1.1,0.5-1.6,0.6c-1.1,0.3-2.1,0-2.7-0.8c-0.6-0.8-0.7-1.9-0.1-2.9c0.3-0.5,0.7-0.8,1.1-1.3
			c0.2-0.3,0.5-0.5,0.8-0.8c-0.5-0.4-0.9-0.8-1.3-1.2c-1.1-1-1.4-2.1-1-3.2c0.4-1.2,1.6-2,3.1-1.9c0.8,0.1,1.7,0.3,2.6,0.5
			c0.1-0.2,0.2-0.5,0.3-0.8c0.2-0.7,0.4-1.4,0.7-2c0.4-0.8,1.2-1.3,2.1-1.3c1,0,1.7,0.6,2,1.5c0.2,0.4,0.2,0.8,0.3,1.3
			c0.1,0.9,0.2,1.9,0.2,2.8c0,0.9,0.3,1.4,1.1,1.6c0.9,0.3,1.8,0.7,2.6,1c1,0.4,1.8,1,1.9,2.2C295.6,254,295,254.8,294.1,255.4z
			 M307,219.8c-0.3,0.4-0.7,0.7-1,0.9c-3.5,2.4-7.1,4.7-11.3,5.9c-3.8,1.1-7.6,1.6-11.5,1.6c-2.3,0-4.4-0.6-6.5-1.6
			c-3.2-1.5-5.3-4-6.1-7.4c-0.6-2.6-1-5.2-1.1-7.9c-0.3-4.8-0.2-9.6,0.1-14.3c0.3-5.1,0.8-10.2,1.8-15.3c0.5-2.4,1-4.8,1.8-7.2
			c1.5-4.9,5.2-7.2,10.1-7.7c3.9-0.3,7.7,0.2,11.4,1c0.6,0.1,1.2,0.2,1.7,0.4c0.8,0.4,1.7,0.7,2.3,1.3c1.6,1.5,1.5,3.6-0.2,5
			c-1.5,1.2-3.2,1.8-5.1,1.9c-1.4,0-2.7-0.1-4.1-0.1c-1.4-0.1-2.8-0.3-4.2,0.2c-0.7,0.2-1.2,0.6-1.5,1.2c-0.7,1.7-1.6,3.3-2.1,5.1
			c-2,5.9-2.9,11.9-3.2,18.1c0,1.4-0.1,2.8-0.2,4.4c0.9,0,1.7,0,2.4,0c1,0,2,0,3.1,0.1c0.3,0,0.7,0.1,1,0.2c0.9,0.3,1.4,1,1.4,1.9
			c0,0.9-0.4,1.6-1.3,1.9c-0.9,0.3-1.8,0.4-2.6,0.5c-1.2,0.1-2.3,0-3.6,0c0,0.5,0,0.8,0,1.1c0.4,2.1,0.7,4.3,1.2,6.4
			c0.3,1.4,0.8,2.7,1.9,3.7c0.5,0.5,0.9,0.8,1.6,0.8c5.2,0.5,10.2-0.2,14.8-2.6c1.4-0.7,2.6-1.5,4-2.3c0.9-0.5,1.7-0.9,2.7-1.2
			c1.2-0.4,2.2,0,2.8,0.9C308,217.7,307.9,218.8,307,219.8z"/>
		<path class="st49" d="M222.5,213.6c0.1-0.7,0.2-1.4,0.2-2c0.1-1.4,0.3-2.7,0.4-4.1c0.3-3.6,0.7-7.2,0.8-10.8
			c0.1-2.9,0.1-5.8-0.1-8.7c-0.4-4.4-1.3-8.8-2.4-13.2c-0.7-2.8-2.1-5.2-4.2-7.2c-2.1-1.9-4.7-1.9-6.5,0.2c-1.2,1.3-2.2,2.8-3.2,4.3
			c-1.8,2.9-2.7,6.3-3.5,9.6c-1.3,5.3-2.1,10.6-2.8,16c-0.6,4.3-1.2,8.5-1.1,12.9c0,0.4,0,0.8,0,1.2
			C207.6,212.7,215,213.2,222.5,213.6z"/>
		<path class="st49" d="M158.3,192.4c0.5,2.6,1.1,5.1,1.6,7.7c0.5,2.1,1.9,3.1,4,3.4c1.6,0.2,3.1-0.2,4.6-0.5c3.5-0.8,6.8-2,9.5-4.3
			c4.5-3.8,7.4-8.5,7.1-14.7c0-0.7-0.1-1.3-0.1-2c-0.4-5.5-2.4-10.3-6.3-14.2c-3.2-3.2-7.2-4.3-11.5-2.9c-4.7,1.6-8.2,4.8-9.8,9.6
			c-1.2,3.4-1.5,7-0.7,10.7C157.4,187.6,157.8,190,158.3,192.4z"/>
		<path class="st49" d="M228.3,243.4c-0.9-0.8-1.9-1.4-3.1-1.8c-0.2,12,0.1,23.9,0.1,36c0.5-0.1,0.9-0.2,1.3-0.3
			c4.9-1.6,8-4.9,9.3-9.9c1-3.6,0.8-7.2,0-10.8C234.8,251.3,232.3,246.9,228.3,243.4z"/>
		<path class="st49" d="M154.1,242.5c-0.4-0.1-0.7-0.2-1.2-0.2c0,0.3,0,0.4,0,0.6c0.3,3.2,0.6,6.5,0.8,9.7c0.2,3.7,0.1,7.4,0.3,11.1
			c0.1,2.8,0.3,5.5,0.4,8.5c0.7-0.2,1.2-0.3,1.7-0.4c5.3-1.7,8.9-5.1,10-10.6c0.6-2.9,0.2-5.7-1-8.4
			C163,247.7,159.4,244.2,154.1,242.5z"/>
	</g>
	<g>
		<path class="st21" d="M366.3,213c-0.2,2.5-0.4,5-0.7,7.4c-0.9,8.4-1.8,16.8-3.7,25.1c-1.3,5.4-3.1,10.7-5.2,15.8
			c-0.5,1.2-1.1,2.3-1.8,3.4c-1.6,2.6-3.5,4.8-5.6,7c-0.8,0.9-1.9,1.5-2.8,2.3c-0.2,0.2-0.5,0.5-0.5,0.8c-0.1,0.4-0.1,0.9-0.1,1.4
			c-0.3,3.2-2.1,5.2-5.2,5.8c-0.9,0.2-1.8,0.2-2.7,0.4c-0.1,0.3-0.2,0.7-0.3,1c-0.4,1-0.8,2-1.3,2.9c-0.7,1.2-1.8,1.8-3.2,1.8
			c-0.6,0-1.2-0.1-1.7-0.1c-1.6,0-3.3,0.1-4.9,0.2c-0.7,0-1.4,0.3-2.1,0.8c0.3,1.2,0.9,2.1,1.8,2.8c1.6,1.2,3.2,2.3,4.8,3.5
			c1.3,1,2.8,1.9,4,3c2.4,2.2,3.8,5,4.1,8.2c0.2,1.9-0.1,3.8-0.7,5.6c-0.8,2.4-0.9,4.7-0.6,7.2c0.7,5.8,1.3,11.6,1.9,17.5
			c0.1,0.9,0.3,1.8,0.4,2.8c0.1,0.7,0.1,1.3,0,2c-0.1,1-0.7,1.8-1.5,2.4c-5.1,3.6-10.8,5.9-16.5,8.2c-9.9,3.9-20.2,6.4-30.6,8.3
			c-6.9,1.3-13.9,2.6-20.9,3.6c-5.3,0.8-10.6,1.3-15.8,1.7c-4.5,0.4-9,0.7-13.5,1c-11.7,0.7-23.3,0.9-35,0.5
			c-8.2-0.3-16.4-0.5-24.7-0.8c-6.9-0.3-13.9-0.7-20.8-1.5c-14.5-1.7-28.8-4.2-42.9-7.5c-5.6-1.3-11.1-2.8-16.6-4.6
			c-7.2-2.5-14.2-5.4-20.7-9.4c-1.6-1-3.1-2.2-4.6-3.4c-1.8-1.5-2.7-3.4-2.5-5.9c0.4-5.3,0.7-10.5,1.2-15.8c0.2-2.4,0.5-4.7,0.8-7.1
			c0.1-0.9-0.1-1.7-0.5-2.5c-0.5-1.1-1-2.3-1.4-3.4c-1.1-3.9,1.3-8.9,4.8-11.2c2.2-1.4,4.5-2.6,7-3.4c1-0.3,2-0.7,3-1
			c0-0.6,0-1.2,0-1.9c-1.1-0.3-2.3-0.5-3.4-0.8c-0.5-0.1-1-0.3-1.4-0.4c-2.2-0.8-3.4-2.3-3.6-4.7c-0.1-1.3-0.1-2.6-0.2-3.8
			c-0.1-1-0.2-2.1-0.2-3.1c-0.1-0.8-0.4-1.3-1.1-1.6c-1.9-0.9-3.3-2.4-3.7-4.5c-0.1-0.5-0.1-1.1-0.1-1.6c0.1-5.4,0.3-10.8,0.5-16.2
			c0.1-1.5,0.4-3,0.7-4.5c0.4-2,1.7-3.3,3.6-3.9c0,0,0.1,0,0.1,0c1.9-0.6,2.4-0.9,2-3.7c-0.4,0-0.9-0.1-1.3-0.1
			c-2.2-0.1-4.3-0.3-6.5-0.8c-6.6-1.6-9.9-5.6-11-11.9c-0.4-2.2-0.4-4.6-0.5-6.8c-0.1-6.2-0.1-12.4-0.3-18.6
			c-0.2-6.4-0.5-12.7-0.6-19.1c-0.1-4.2-0.1-8.3,0-12.5c0.1-3.9,0.4-7.8,1.4-11.5c0.4-1.4,0.9-2.8,1.4-4.2c1.4-3.3,3.7-5.6,7.1-6.7
			c1.9-0.6,4-1.1,6-1.5c1-0.2,2-0.1,3-0.1c3.2,0.1,6.4,0.1,9.5,0.4c1.3,0.1,1.9-0.4,2.5-1.4c5.1-9,11.2-17.3,18.1-25.1
			c9.4-10.7,19.7-20.5,31.2-28.9c15.8-11.4,33.4-19,52.5-22.7c5.5-1.1,11.1-1.9,16.7-2.2c4.6-0.3,9.2-0.1,13.7,0.2
			c7.6,0.6,15,1.8,22.4,3.6c12.8,3.1,24.5,8.5,35.4,15.9c12.1,8.3,22.4,18.4,31.3,30c5.6,7.3,10.2,15.3,14.4,23.5
			c0.2,0.3,0.3,0.6,0.5,0.9c0,0.1,0.1,0.1,0.3,0.2c-0.1-1.7-0.2-3.3-0.3-5c-0.3-6.3-0.9-12.5-0.8-18.8c0-2.2,0.2-4.4,0.7-6.6
			c0.1-0.5,0.3-1,0.5-1.4c1.1-2.6,3.1-3.7,5.8-2.9c1.1,0.3,2,0.9,3,1.4c0.3,0.2,0.6,0.4,1,0.7c0-0.4,0.1-0.7,0.1-1
			c0-3.7,0-7.5,0.1-11.2c0-1.8,0.2-3.6,0.5-5.3c0.2-1,0.6-2.1,1.1-3c1.1-1.9,3.1-2.6,5.6-2.1c1.9,0.4,3.4,1.5,4.3,3.3
			c1,1.9,1.6,4,1.8,6.1c0.4,3.5,0.8,7,1,10.5c0.8,15.2,0.5,30.5,0.4,45.7c0,1.3,0.4,2.4,1.3,3.3c2.2,2.1,3.5,4.7,4.1,7.5
			c0.5,2.3,0.9,4.6,1.1,7c0.5,5.2,0.6,10.5,0.4,15.7c-0.1,1.7,0,3.3,0,5c0.8,0.3,1.6,0.6,2.3,0.9c1.7,0.9,3.1,2.2,4.2,3.8
			c1.8,2.6,2.8,5.6,3.3,8.7c0.4,2.6,0.3,5.1-0.6,7.6C369.1,210.8,368.2,212.3,366.3,213z M88.7,282.9c0-0.4,0.1-0.7,0.1-1
			c0.1-2,0.2-4,0.3-6c0.2-4.3,0.3-8.7,0.4-13c0.1-4,0-7.9,0.1-11.9c0-0.8,0.2-1.7,0.6-2.5c0.5-1.1,1.7-1.1,2.3-0.2
			c0.4,0.6,0.7,1.4,0.8,2.1c0.3,2.4,0.6,4.9,0.7,7.3c0.3,7.7,0.2,15.4-0.2,23c-0.2,2.9-0.3,5.9-0.5,8.8c-0.1,2.2-1.2,3.8-3.3,4.6
			c-0.6,0.2-1.2,0.4-1.9,0.7c-2.1,0.9-4.2,1.7-6.3,2.6c-1.9,0.8-3,2.3-3.5,4.3c-0.4,1.6-0.2,3.2,1.2,4.3c1.4,1.1,2.7,2.2,4.2,3.1
			c3.8,2.3,7.9,4.1,12.2,5.5c9.7,3.1,19.7,4.6,29.8,5.8c4.4,0.5,8.8,1,13.2,1.5c5.4,0.5,10.8,1.1,16.2,1.5c5.7,0.4,11.4,0.7,17.1,1
			c6.9,0.4,13.8,0.8,20.7,1.1c5.8,0.3,11.6,0.5,17.5,0.7c5.2,0.2,10.5,0.4,15.7,0.5c16.3,0.1,32.5-0.8,48.7-2.4
			c8.6-0.9,17.3-1.8,25.8-3.3c6.7-1.2,13.3-2.6,19.8-4.7c2.9-1,5.8-2.1,8.7-3.2c2.2-0.9,3.8-2.4,4.8-4.5c0.4-0.8,0.5-1.7,0.3-2.6
			c-0.4-2-1.6-3.6-3.3-4.8c-1-0.7-2.1-1.3-3.2-1.9c-1.4-0.8-2.9-1.6-4.3-2.5c-3-1.9-4.8-4.6-5.2-8.3c-0.1-1.4-0.3-2.9-0.2-4.3
			c0.4-5.6,0.8-11.2,1.3-16.8c0.1-0.7,0.1-1.3,0.3-2c0.3-1.2,1-1.8,2-1.8c1,0,1.7,0.7,2,1.8c0.2,0.8,0.3,1.6,0.2,2.4
			c-0.2,3.7-0.4,7.4-0.6,11.2c-0.1,1.5-0.1,3-0.2,4.7c3.1-1.2,6.2-1.4,9.4-0.9c0.6-1.5,0.8-2.9,0.9-4.3c0.6-6.4,0.2-12.7-0.6-19
			c-0.2-1.2-0.7-1.9-1.8-2.2c-1.7-0.3-3.3-0.7-5-1c-1.6-0.3-2.6-1.2-3-2.7c-0.4-1.5-0.4-3-0.1-4.5c0.5-3.1,1.1-6.3,1.7-9.4
			c0.9-4.8,1.3-9.7,1.3-14.6c0-2.9,0.1-5.8,0.1-8.7c0.2-11.4,0.1-22.8-1.5-34.2c-0.9-6.3-2.3-12.5-4.5-18.5
			c-1.3-3.4-3.1-6.4-4.8-9.5c-2.3-4.3-5.3-8-8.8-11.4c-3.4-3.3-7.2-6.2-11-9c-10.4-7.6-21.8-13.2-34.4-16.3
			c-6.7-1.7-13.4-2.9-20.2-3.9c-7.4-1.1-14.8-2-22.2-2.3c-13.5-0.6-26.8,0.2-40.1,2.4c-11.9,2-23.4,5.3-34.6,9.8
			c-19.1,7.7-33.4,20.8-43.2,38.9c-3.8,7-6.6,14.4-8.8,22c-1.7,5.9-2.8,12-4,18.1c-0.9,4.7-1.7,9.3-1.8,14.1
			c-0.1,6.2-0.1,12.3-0.1,18.5c0,0.4,0.1,0.8,0.2,1.3c0.1,1.3,0.4,2.7,0.4,4c0,2.7-1.4,4.5-3.8,5.7c-0.3,0.2-0.7,0.3-1.1,0.4
			c-0.7,0.2-1.1,0.7-1.2,1.4c-0.1,0.7-0.2,1.5-0.3,2.2c-0.2,5.6-0.4,11.2-0.6,16.9c0,0.7,0.3,1.3,0.8,1.7c0.3,0.2,0.6,0.4,0.9,0.6
			c1.8,0.9,2.8,2.3,3,4.3c0.2,2.4,0.3,4.8,0.4,7.2c0.1,1,0.1,1.1,1,1.4C86.7,282.4,87.7,282.6,88.7,282.9z M81.7,232.3
			c0-0.5,0-1,0-1.5c-0.1-4.4-0.3-8.8-0.3-13.1c0-2.4,0.1-4.9,0.5-7.3c1.1-8.4,2.5-16.6,4.6-24.8c3.5-13.9,9.2-26.7,17.7-38.3
			c6.1-8.4,13.6-15.3,22.4-20.8c7.4-4.7,15.3-8.1,23.6-11c16.9-5.9,34.4-8.9,52.2-9.6c9.7-0.4,19.4-0.1,29.1,1
			c8.4,1,16.8,2.2,25.2,4c7.1,1.5,14,3.5,20.6,6.4c10.8,4.6,20.4,11,29.3,18.5c5.8,4.9,10.6,10.6,14.2,17.3
			c2.5,4.7,4.9,9.5,6.3,14.7c2.2,8.2,3.4,16.5,3.9,24.9c0.3,5.5,0.4,11.1,0.5,16.6c0,4.5-0.1,9.1-0.2,13.6c0,2.7-0.1,5.4-0.2,8.1
			c0,0.5,0,1.1,0,1.7c2.1-0.3,4.1,0.7,6.2,0.1c0-0.3,0.1-0.5,0.1-0.7c0.3-4.5,0.7-9.1,0.8-13.6c0.3-10,0.1-19.9-0.9-29.9
			c-0.5-5.4-1.3-10.8-2.5-16.1c-4.1-17.7-11.2-34.2-21.4-49.2c-6.8-10.1-15-19.1-24.3-27c-10.8-9.2-22.8-16.2-36.4-20.4
			c-5.9-1.8-11.9-3.1-17.9-4.1c-5.6-0.9-11.2-1.5-16.8-1.6c-7.5-0.2-15,0.7-22.3,2c-17.9,3.4-34.4,10.1-49.4,20.5
			c-8.6,6-16.5,12.8-23.7,20.4c-7,7.4-13.7,15-19.5,23.4c-6.5,9.3-11.8,19.2-15.6,30c-3.2,9.1-5.3,18.4-6.7,27.9
			c-1.5,9.7-2.2,19.5-2,29.3c0,1.2-0.1,2.5,0,3.7c0,0.8,0.1,1.5,0.2,2.3C79.3,231.5,79.9,232,81.7,232.3z M79.1,323.4
			c-0.2,3.6-0.4,7-0.7,10.4c-0.1,0.9,0.2,1.5,0.9,2c1.3,0.9,2.5,1.9,3.8,2.7c4.2,2.6,8.7,4.7,13.2,6.6c7.6,3.1,15.4,5.4,23.4,7.2
			c4.3,1,8.6,1.9,13,2.8c8.2,1.6,16.4,3.1,24.7,4.1c5,0.6,9.9,1.1,14.9,1.5c5.7,0.4,11.4,0.6,17.1,0.8c8,0.3,16,0.5,24,0.7
			c9.4,0.2,18.9-0.1,28.3-0.7c4.5-0.3,9-0.6,13.5-1c4.6-0.4,9.3-0.9,13.9-1.6c5.6-0.8,11.2-1.8,16.7-2.9c6.8-1.3,13.6-2.6,20.2-4.4
			c7.9-2.1,15.6-4.8,23-8.2c1.9-0.9,3.8-2,5.7-3c0.5-0.3,0.6-0.6,0.6-1.2c-0.4-3.2-0.7-6.5-1.1-9.7c0-0.3-0.1-0.6-0.2-0.9
			c-0.4,0.2-0.8,0.3-1.2,0.4c-1.6,0.6-3.2,1.2-4.8,1.6c-11.7,3.3-23.5,5.7-35.6,6.7c-7.3,0.6-14.6,1-21.8,1.4
			c-10.2,0.6-20.3,1.1-30.5,1.5c-7.1,0.3-14.3,0.5-21.4,0.6c-6.4,0.1-12.9-0.1-19.3-0.2c-6.2-0.1-12.3-0.3-18.5-0.5
			c-6-0.3-11.9-0.6-17.9-1c-6-0.4-12-0.9-18-1.5c-5.9-0.6-11.8-1.4-17.7-2.2c-8.5-1.2-16.9-2.6-25.2-4.4c-7.6-1.7-15.1-3.9-22.2-7.2
			C79.7,323.6,79.5,323.6,79.1,323.4z M79.6,318.9c4.1,1.4,8,2.8,12,4c9.9,3,20,4.8,30.2,6.3c5.4,0.8,10.9,1.6,16.4,2.2
			c4.8,0.6,9.6,1,14.4,1.5c4.5,0.4,9,0.7,13.5,1c5,0.3,9.9,0.6,14.9,0.9c5.5,0.2,11,0.4,16.5,0.5c8.8,0.2,17.6,0.5,26.4,0.3
			c9.3-0.1,18.7-0.6,28-1c9.9-0.4,19.8-0.9,29.7-1.4c6.4-0.3,12.7-0.8,19-1.7c9.4-1.2,18.6-3.2,27.8-5.8c1.8-0.5,3.5-1.1,5.3-1.7
			c-0.3-2.3-0.4-4.6-0.9-6.8c-1.5,0.7-2.9,1.3-4.3,1.8c-5.4,2.2-11.1,3.7-16.8,5c-7.6,1.8-15.3,3.1-23,4c-4.6,0.6-9.3,1.1-13.9,1.5
			c-5.1,0.5-10.2,1-15.3,1.3c-5.5,0.4-11.1,0.6-16.6,0.8c-8.7,0.3-17.5,0.3-26.2,0c-6.1-0.2-12.2-0.4-18.3-0.6
			c-5.8-0.2-11.6-0.5-17.4-0.8c-7.2-0.4-14.4-0.8-21.6-1.3c-5.9-0.4-11.8-0.9-17.7-1.5c-7.5-0.8-15-1.7-22.5-2.7
			c-6.1-0.8-12.2-2-18.1-3.5c-7.2-1.9-13.9-4.6-20-8.9c-0.1-0.1-0.3-0.1-0.5-0.2C80,314.5,79.8,316.6,79.6,318.9z M356.2,231.8
			c0.1-0.2,0.1-0.4,0.1-0.7c0.7-5.9,1.2-11.7,1.4-17.6c0-0.7-0.2-1-0.7-1.4c-2.3-1.5-4.2-3.4-5.2-6c-0.6-1.6-1.2-3.2-1.5-4.9
			c-0.7-4.2,0.1-8,3.3-10.9c0.4-0.4,0.5-0.9,0.5-1.4c0-4.1,0.1-8.2,0.1-12.3c-0.1-3.7-0.2-7.4-0.5-11c-0.2-2.2-0.6-4.3-1.3-6.4
			c-0.7-1.9-2-2.9-4-3.3c-3.3-0.7-6.6-0.5-9.9-0.3c-1,0-1.9,0.1-2.9,0.2c0.5,1.5,0.9,2.9,1.4,4.3c4.4,13.6,6.2,27.7,6.7,41.9
			c0.3,9.8-0.2,19.5-1,29.2c0,0.4,0,0.8,0,1.3C347.2,232.2,351.7,232,356.2,231.8z M88.6,151.1c-0.3,0-0.4-0.1-0.6-0.1
			c-3.9,0.1-7.7,0.5-11.5,1.3c-2.2,0.5-4.3,1.2-6.3,2.3c-0.6,0.4-1.1,0.8-1.3,1.6c-0.3,1.2-0.7,2.3-0.8,3.5c-0.9,6-1,12.1-0.8,18.2
			c0.1,4.9,0.4,9.8,0.5,14.8c0.1,6.6,0.2,13.2,0.3,19.8c0.1,3.7,0.2,7.4,0.3,11.1c0,1.5,0.4,2.9,0.9,4.3c1.2,3,3.7,4.1,6.6,4.8
			c-0.1-0.9-0.3-1.7-0.4-2.4c-0.2-2.4-0.4-4.9-0.5-7.3c-0.3-6.5-0.2-13,0.4-19.4c0.7-7.5,1.7-14.9,3.2-22.2c2-10.1,5-19.9,9.6-29.2
			C88.3,151.8,88.4,151.5,88.6,151.1z M345.5,262.4c2-2.5,3.4-5.1,4.6-7.8c2.3-5.2,3.8-10.7,4.9-16.4c-0.2,0-0.4-0.1-0.5-0.1
			c-4.8,0.1-9.5,0.2-14.3,0.3c-3.2,0.1-6.4,0.4-9.6-0.2c-0.7,1.7-3.1,12.2-3,13.4c0.3,0,0.5,0,0.8,0c2,0.2,3.9,0.6,5.7,1.4
			c1.6,0.7,2.7,1.7,3.3,3.4c0,0.1,0.1,0.3,0.2,0.4C342.5,257,343.8,257.9,345.5,262.4z M347.8,150c0-0.3,0-0.5,0-0.7
			c0-9.4,0-18.7,0-28.1c0-8.5-0.1-17.1-0.9-25.6c-0.2-1.8-0.6-3.7-1-5.5c-0.1-0.4-0.3-0.9-0.5-1.3c-0.4-0.6-1-0.4-1.2,0.2
			c-0.1,0.4-0.2,0.8-0.2,1.1c-0.2,2.4-0.4,4.7-0.4,7.1c-0.1,9,0,18.1,0.4,27.1c0.3,7.9,0.4,15.9,0.2,23.9c0,0.5,0,0.9,0,1.4
			C345.3,149.8,346.5,149.9,347.8,150z M333.7,108.6c-0.1,0.5-0.2,1-0.3,1.4c-0.1,1.5-0.2,3-0.2,4.5c0.2,5,0.5,10.1,0.8,15.1
			c0.3,5,0.7,10.1,1,15.1c0.1,1.8,0.2,3.7,0.3,5.7c1.2,0,2.4-0.2,3.4-0.4c-0.1-4.6-0.3-9.1-0.2-13.5c0.1-7.1-0.2-14.1-0.5-21.2
			c-0.1-1.3-0.3-2.7-0.7-4C336.9,109.6,335.6,108.7,333.7,108.6z M338.2,261.3c0.5,5.5,0.8,10.9,0.4,16.3c2.3,0,2.6-0.3,2.6-2.4
			c0-2.7,0-5.5-0.1-8.2c-0.1-1.4-0.3-2.8-0.6-4.1C340.2,261.4,339.8,261.2,338.2,261.3z"/>
		<path class="st21" d="M201.8,142.1c12.6,0,25.2-0.1,37.8,0c5.3,0,10.6,0.2,15.9,0.6c5.2,0.4,10.3,1.2,15.5,1.9
			c4.6,0.7,9.2,1.5,13.7,2.8c11.5,3.1,20.6,9.7,27.7,19.1c3.3,4.4,6,9,7.6,14.3c1.1,3.6,1.8,7.4,2.2,11.2c1,10.4,1.4,20.7,1.4,31.2
			c0,5.5-0.2,10.9-0.9,16.4c-1,8.1-3.4,15.7-7.1,23c-1.7,3.3-3.5,6.6-5.7,9.6c-4.2,5.6-9.4,9.9-15.7,13c-5.6,2.8-11.5,4.9-17.4,6.7
			c-7.3,2.2-14.7,3.9-22.2,5.5c-11.9,2.5-24,3.6-36.2,3.2c-7.3-0.2-14.6-0.6-21.8-1.3c-12.6-1.2-25.1-3-37.4-6.3
			c-8.7-2.3-17.2-5-25.2-9c-5.3-2.6-10.4-5.6-14.8-9.6c-6.5-5.7-11.2-12.6-15-20.3c-3.2-6.6-5.2-13.6-6.3-20.8
			c-0.8-5.1-1.1-10.3-1.7-15.4c-0.5-4.4-0.5-8.8-0.4-13.2c0.2-6.3,1.1-12.5,2.7-18.6c1.1-4.5,2.2-9.1,3.7-13.6
			c2-5.9,4.8-11.5,8.9-16.4c1.3-1.6,2.8-2.9,4.4-4.1c4.5-3.4,9.5-5.5,15-6.8c8.2-1.9,16.4-3,24.8-3.1
			C170.7,142,201.8,142,201.8,142.1z M201.1,147.7c-15.1,0.1-30.3,0.2-45.4,0.3c-7.7,0.1-15.4,0.9-23,2.6c-4.8,1.1-9.4,2.6-13.4,5.5
			c-1.6,1.2-3.1,2.4-4.4,4c-3.5,4.3-6,9.2-7.9,14.3c-4,10.4-5.7,21.2-6.1,32.3c-0.3,8.7,0.4,17.4,1.8,26c1.1,6.9,3.1,13.5,6.3,19.8
			c3.7,7.3,8.3,13.8,14.6,19.1c4.5,3.8,9.6,6.6,14.9,9c8,3.7,16.4,6.1,24.9,8.2c7.6,1.8,15.3,3.2,23.1,4.2c4.8,0.7,9.7,1.2,14.6,1.6
			c4.7,0.4,9.4,0.6,14.1,0.8c6.2,0.3,12.4,0.3,18.6-0.2c6.1-0.5,12.2-1.3,18.2-2.6c7.1-1.5,14.2-3.1,21.2-5c6.6-1.8,13-4.1,19.1-7.2
			c4.8-2.4,8.9-5.8,12.2-10c3.7-4.6,6.3-9.8,8.5-15.2c3.1-7.8,4.3-15.9,4.6-24.2c0.3-8,0.2-16-0.2-24c-0.3-5.5-0.5-10.9-1.2-16.4
			c-0.5-4.1-1.3-8.1-3.2-11.9c-6.3-12.8-16-21.7-29.9-25.5c-8.1-2.2-16.3-3.3-24.6-4.2c-6.4-0.7-12.9-0.9-19.3-0.9
			C226.5,148,201.1,147.8,201.1,147.7z"/>
	</g>
</g>
</svg>
